<svg width="45" height="40" viewBox="0 0 45 40" fill="none" xmlns="http://www.w3.org/2000/svg">
<mask id="mask0_362_15949" style="mask-type:luminance" maskUnits="userSpaceOnUse" x="0" y="0" width="45" height="40">
<path d="M44.2824 0H0V40H44.2824V0Z" fill="white"/>
</mask>
<g mask="url(#mask0_362_15949)">
<path d="M28.5876 30.0024C28.4307 30.0036 28.2756 29.971 28.1347 29.9072L22.3968 27.4049L16.6589 29.9072C16.488 29.9826 16.2981 30.0141 16.1095 29.9984C15.9207 29.9827 15.7401 29.9204 15.5867 29.8179C15.4343 29.715 15.3148 29.5761 15.2406 29.4159C15.1665 29.2557 15.1405 29.0801 15.1653 28.9075L15.989 23.1009L11.6139 18.8473C11.4839 18.7205 11.3933 18.5637 11.3518 18.3935C11.3103 18.2232 11.3193 18.0458 11.3779 17.8799C11.4366 17.7141 11.5427 17.5658 11.685 17.4508C11.8274 17.3357 12.0007 17.2582 12.1869 17.2263L18.4346 16.1527L21.4721 11.008C21.5716 10.8654 21.7085 10.748 21.8701 10.6668C22.0316 10.5856 22.2127 10.543 22.3968 10.543C22.5808 10.543 22.7619 10.5856 22.9235 10.6668C23.0851 10.748 23.2219 10.8654 23.3215 11.008L26.359 16.1527L32.6067 17.2263C32.7928 17.2582 32.9661 17.3357 33.1085 17.4508C33.2509 17.5658 33.3569 17.7141 33.4156 17.8799C33.4742 18.0458 33.4832 18.2232 33.4417 18.3935C33.4002 18.5637 33.3096 18.7205 33.1796 18.8473L28.8087 23.1009L29.6324 28.9075C29.6517 29.045 29.6387 29.1847 29.5945 29.3172C29.5502 29.4497 29.4757 29.5719 29.3759 29.6757C29.2762 29.7794 29.1534 29.8623 29.016 29.9186C28.8785 29.975 28.7296 30.0035 28.5792 30.0024H28.5876ZM22.3968 25.3431C22.5536 25.3429 22.7084 25.3754 22.8497 25.4383L27.2921 27.3796L26.6602 22.8815C26.6399 22.7387 26.6544 22.5936 26.7024 22.4565C26.7505 22.3196 26.8311 22.1942 26.9382 22.0894L30.3233 18.7891L25.4785 17.9562C25.3249 17.9297 25.1796 17.8721 25.0532 17.7875C24.9268 17.7029 24.8224 17.5934 24.7476 17.467L22.3968 13.5028L20.0439 17.4864C19.969 17.6128 19.8647 17.7223 19.7382 17.8069C19.6118 17.8915 19.4665 17.9492 19.3129 17.9756L14.4681 18.8085L17.8532 22.1088C17.9604 22.2136 18.0409 22.339 18.089 22.476C18.1371 22.613 18.1515 22.7581 18.1312 22.9009L17.4993 27.399L21.9418 25.4577C22.0824 25.3898 22.2381 25.3526 22.3968 25.3489V25.3431Z" fill="#CCFF00"/>
<path d="M4.11151 25.6776C3.96072 25.6788 3.81141 25.6507 3.67366 25.5954C3.5359 25.54 3.4129 25.4587 3.31297 25.3567C3.21304 25.2548 3.13849 25.1348 3.09435 25.0047C3.05022 24.8745 3.03753 24.7374 3.05714 24.6025L3.70663 20.1422L0.28837 16.8769C0.158214 16.7528 0.0675289 16.5993 0.0258472 16.4325C-0.0158351 16.2658 -0.00697502 16.092 0.0514963 15.9295C0.109967 15.7669 0.21589 15.6215 0.358133 15.5087C0.500369 15.3958 0.67368 15.3196 0.85984 15.2881L5.76474 14.4508L8.13917 10.4986C8.22995 10.3481 8.36405 10.2225 8.52742 10.1351C8.69072 10.0477 8.87713 10.0017 9.06706 10.002C9.25634 10.0018 9.44221 10.0477 9.60509 10.1348C9.76798 10.2218 9.90191 10.3468 9.99274 10.4967L12.2069 14.1692C12.3409 14.3907 12.3718 14.6513 12.2929 14.8934C12.214 15.1355 12.0318 15.3394 11.7862 15.4603C11.5407 15.5811 11.252 15.609 10.9837 15.5378C10.7154 15.4667 10.4894 15.3022 10.3554 15.0807L9.06706 12.9476L7.38002 15.7638C7.30516 15.8882 7.20038 15.9961 7.07346 16.0794C6.94648 16.1627 6.80052 16.2193 6.64619 16.2452L3.14992 16.837L5.59395 19.1661C5.7019 19.2688 5.78311 19.392 5.83164 19.5266C5.88017 19.6613 5.89477 19.804 5.87442 19.9443L5.41049 23.1164L8.61155 21.7406C8.7532 21.6797 8.90807 21.6482 9.06491 21.6482C9.22181 21.6482 9.37668 21.6797 9.51832 21.7406L12.6392 23.0726C12.868 23.1926 13.0384 23.3857 13.1166 23.6138C13.1948 23.8419 13.1752 24.0882 13.0615 24.3037C12.9479 24.5194 12.7486 24.6885 12.5032 24.7777C12.2578 24.8669 11.9842 24.8695 11.7367 24.7851L9.06916 23.6435L4.56699 25.5882C4.42446 25.6483 4.26883 25.6788 4.11151 25.6776ZM40.1709 25.6776C40.0132 25.6776 39.8576 25.6458 39.7154 25.5843L35.2153 23.653L32.5478 24.7947C32.4218 24.8608 32.2819 24.9026 32.137 24.9175C31.9922 24.9323 31.8454 24.9199 31.7061 24.881C31.5669 24.8421 31.438 24.7776 31.3278 24.6915C31.2176 24.6054 31.1284 24.4995 31.0657 24.3807C31.0031 24.2619 30.9685 24.1327 30.964 24.0012C30.9596 23.8697 30.9854 23.7388 31.0399 23.6167C31.0943 23.4947 31.1762 23.3842 31.2804 23.2922C31.3847 23.2001 31.5089 23.1286 31.6453 23.0821L34.7662 21.7501C34.9078 21.6892 35.0627 21.6577 35.2196 21.6577C35.3764 21.6577 35.5313 21.6892 35.6729 21.7501L38.874 23.1259L38.4101 19.9538C38.3897 19.8135 38.4043 19.6708 38.4529 19.5361C38.5014 19.4015 38.5826 19.2783 38.6905 19.1756L41.1346 16.8465L37.6383 16.2547C37.484 16.2288 37.338 16.1722 37.211 16.0889C37.0841 16.0056 36.9793 15.8977 36.9045 15.7733L35.2174 12.9571L33.9311 15.0902C33.7972 15.3117 33.5712 15.4762 33.3029 15.5474C33.0345 15.6185 32.7459 15.5907 32.5003 15.4698C32.2548 15.3489 32.0726 15.145 31.9937 14.9029C31.9148 14.6607 31.9457 14.4002 32.0797 14.1787L34.2938 10.5062C34.3847 10.3563 34.5186 10.2313 34.6815 10.1443C34.8444 10.0572 35.0302 10.0114 35.2196 10.0115C35.4091 10.0115 35.5951 10.0577 35.758 10.1451C35.9209 10.2325 36.0547 10.3579 36.1453 10.5081L38.5176 14.4508L43.4225 15.2804C43.6087 15.312 43.782 15.3882 43.9242 15.501C44.0665 15.6139 44.1724 15.7593 44.2309 15.9218C44.2893 16.0844 44.2982 16.2582 44.2565 16.4249C44.2148 16.5916 44.1242 16.7451 43.994 16.8693L40.5652 20.1384L41.2147 24.5987C41.2343 24.7336 41.2216 24.8708 41.1775 25.0009C41.1334 25.131 41.0588 25.251 40.9589 25.3529C40.8589 25.4548 40.7359 25.5362 40.5982 25.5915C40.4604 25.6469 40.3111 25.6749 40.1604 25.6738L40.1709 25.6776Z" fill="#CCFF00"/>
</g>
</svg>
