<svg width="18" height="18" viewBox="0 0 18 18" fill="none" xmlns="http://www.w3.org/2000/svg">
<path d="M9 1.6215C11.4016 1.6215 11.6863 1.62941 12.6353 1.67423C13.5132 1.71378 13.9903 1.86143 14.3067 1.98535C14.7258 2.14882 15.0264 2.34393 15.3401 2.65768C15.6538 2.97144 15.8489 3.27201 16.0123 3.69123C16.1362 4.00762 16.2812 4.48484 16.3234 5.36282C16.3656 6.312 16.3761 6.59675 16.3761 8.99868C16.3761 11.4006 16.3682 11.6854 16.3234 12.6345C16.2838 13.5125 16.1362 13.9897 16.0123 14.3061C15.8489 14.7254 15.6538 15.0259 15.3401 15.3397C15.0264 15.6534 14.7258 15.8485 14.3067 16.012C13.9903 16.1359 13.5132 16.2809 12.6353 16.3231C11.6863 16.3653 11.4016 16.3759 9 16.3759C6.59842 16.3759 6.31371 16.368 5.36467 16.3231C4.48682 16.2836 4.00967 16.1359 3.69332 16.012C3.27417 15.8485 2.97364 15.6534 2.65993 15.3397C2.34622 15.0259 2.15114 14.7254 1.9877 14.3061C1.8638 13.9897 1.7188 13.5125 1.67663 12.6345C1.63445 11.6854 1.6239 11.4006 1.6239 8.99868C1.6239 6.59675 1.63181 6.312 1.67663 5.36282C1.71617 4.48484 1.8638 4.00762 1.9877 3.69123C2.15114 3.27201 2.34622 2.97144 2.65993 2.65768C2.97364 2.34393 3.27417 2.14882 3.69332 1.98535C4.00967 1.86143 4.48682 1.71642 5.36467 1.67423C6.31371 1.62941 6.59842 1.6215 9 1.6215ZM9 0C6.55624 0 6.25044 0.0105465 5.29086 0.0553686C4.33392 0.100191 3.68014 0.250476 3.10545 0.474586C2.51494 0.701333 2.01142 1.00981 1.51318 1.51077C1.0123 2.01172 0.706503 2.51267 0.474517 3.1059C0.253076 3.67804 0.100175 4.33192 0.05536 5.29164C0.0105446 6.25136 0 6.5572 0 9.00132C0 11.4454 0.0105446 11.7513 0.05536 12.711C0.100175 13.6681 0.250439 14.322 0.474517 14.8967C0.703866 15.4847 1.0123 15.9883 1.51318 16.4866C2.01406 16.9875 2.51494 17.2934 3.10808 17.5254C3.68014 17.7469 4.33392 17.8998 5.2935 17.9446C6.25308 17.9895 6.55888 18 9.00264 18C11.4464 18 11.7522 17.9895 12.7118 17.9446C13.6687 17.8998 14.3225 17.7495 14.8972 17.5254C15.4851 17.296 15.9886 16.9875 16.4868 16.4866C16.9877 15.9856 17.2935 15.4847 17.5255 14.8915C17.7469 14.3193 17.8998 13.6654 17.9446 12.7057C17.9895 11.746 18 11.4402 18 8.99605C18 6.55193 17.9895 6.24608 17.9446 5.28636C17.8998 4.32928 17.7496 3.67541 17.5255 3.10063C17.2961 2.51267 16.9877 2.00908 16.4868 1.51077C15.9859 1.00981 15.4851 0.70397 14.8919 0.47195C14.3199 0.250476 13.6661 0.0975538 12.7065 0.0527318C11.7496 0.0105464 11.4438 0 9 0Z" fill="#F0F0F0"/>
<path d="M9 4C6.23902 4 4 6.23902 4 9C4 11.761 6.23902 14 9 14C11.761 14 14 11.761 14 9C14 6.23902 11.761 4 9 4ZM9 12.2459C7.20878 12.2459 5.75414 10.7941 5.75414 9C5.75414 7.20593 7.20878 5.75414 9 5.75414C10.7912 5.75414 12.2459 7.20593 12.2459 9C12.2459 10.7941 10.7912 12.2459 9 12.2459Z" fill="#F0F0F0"/>
<path d="M14 5C14.5523 5 15 4.55228 15 4C15 3.44772 14.5523 3 14 3C13.4477 3 13 3.44772 13 4C13 4.55228 13.4477 5 14 5Z" fill="#F0F0F0"/>
</svg>
