<svg width="18" height="12" viewBox="0 0 18 12" fill="none" xmlns="http://www.w3.org/2000/svg">
<path d="M14.5957 0H3.40425C2.95701 -9.11148e-08 2.51415 0.0821997 2.10098 0.241901C1.68781 0.401603 1.31243 0.635677 0.996286 0.930747C0.680143 1.22582 0.429435 1.5761 0.258488 1.96158C0.0875404 2.34706 -0.000294856 2.76018 7.43626e-07 3.17733V8.82267C-0.000294856 9.23982 0.0875404 9.65294 0.258488 10.0384C0.429435 10.4239 0.680143 10.7742 0.996286 11.0693C1.31243 11.3643 1.68781 11.5984 2.10098 11.7581C2.51415 11.9178 2.95701 12 3.40425 12H14.5957C15.043 12 15.4858 11.9178 15.899 11.7581C16.3122 11.5984 16.6876 11.3643 17.0037 11.0693C17.3199 10.7742 17.5706 10.4239 17.7415 10.0384C17.9125 9.65294 18.0003 9.23982 18 8.82267V3.17733C18.0003 2.76018 17.9125 2.34706 17.7415 1.96158C17.5706 1.5761 17.3199 1.22582 17.0037 0.930747C16.6876 0.635677 16.3122 0.401603 15.899 0.241901C15.4858 0.0821997 15.043 -9.11148e-08 14.5957 0ZM6.6285 8.57293V3.42707L11.3715 6L6.6285 8.57293Z" fill="#F0F0F0"/>
</svg>
