<svg width="14" height="14" viewBox="0 0 14 14" fill="none" xmlns="http://www.w3.org/2000/svg">
<path d="M8.1665 5.25033H6.70817C6.22494 5.25033 5.83317 5.64207 5.83317 6.12533C5.83317 6.60856 6.22494 7.00033 6.70817 7.00033H7.2915C7.77474 7.00033 8.1665 7.39209 8.1665 7.87533C8.1665 8.35856 7.77474 8.75033 7.2915 8.75033H5.83317M6.99984 4.66699V5.25033M6.99984 8.75033V9.33366M10.4998 7.00033H10.5057M3.49984 7.00033H3.50567M1.1665 4.78366V9.21699C1.1665 9.87038 1.1665 10.1971 1.29366 10.4467C1.40551 10.6662 1.58399 10.8447 1.80352 10.9565C2.05308 11.0837 2.37977 11.0837 3.03317 11.0837H10.9665C11.6199 11.0837 11.9466 11.0837 12.1962 10.9565C12.4157 10.8447 12.5942 10.6662 12.706 10.4467C12.8332 10.1971 12.8332 9.87038 12.8332 9.21699V4.78366C12.8332 4.13027 12.8332 3.80357 12.706 3.554C12.5942 3.33448 12.4157 3.15601 12.1962 3.04415C11.9466 2.91699 11.6199 2.91699 10.9665 2.91699H3.03317C2.37978 2.91699 2.05308 2.91699 1.80352 3.04415C1.584 3.156 1.40551 3.33448 1.29366 3.554C1.1665 3.80357 1.1665 4.13026 1.1665 4.78366ZM10.7915 7.00033C10.7915 7.16138 10.6609 7.29199 10.4998 7.29199C10.3388 7.29199 10.2082 7.16138 10.2082 7.00033C10.2082 6.83927 10.3388 6.70866 10.4998 6.70866C10.6609 6.70866 10.7915 6.83927 10.7915 7.00033ZM3.7915 7.00033C3.7915 7.16138 3.66092 7.29199 3.49984 7.29199C3.33876 7.29199 3.20817 7.16138 3.20817 7.00033C3.20817 6.83927 3.33876 6.70866 3.49984 6.70866C3.66092 6.70866 3.7915 6.83927 3.7915 7.00033Z" stroke="#414243" stroke-width="1.16667" stroke-linecap="round" stroke-linejoin="round"/>
</svg>
