<svg width="14" height="14" viewBox="0 0 14 14" fill="none" xmlns="http://www.w3.org/2000/svg">
<path d="M8.1665 5.24984H6.70817C6.22494 5.24984 5.83317 5.64159 5.83317 6.12484C5.83317 6.60807 6.22494 6.99984 6.70817 6.99984H7.2915C7.77474 6.99984 8.1665 7.3916 8.1665 7.87484C8.1665 8.35807 7.77474 8.74984 7.2915 8.74984H5.83317M6.99984 4.6665V5.24984M6.99984 8.74984V9.33317M10.4998 6.99984H10.5057M3.49984 6.99984H3.50567M1.1665 4.78317V9.2165C1.1665 9.8699 1.1665 10.1966 1.29366 10.4462C1.40551 10.6657 1.58399 10.8442 1.80352 10.956C2.05308 11.0832 2.37977 11.0832 3.03317 11.0832H10.9665C11.6199 11.0832 11.9466 11.0832 12.1962 10.956C12.4157 10.8442 12.5942 10.6657 12.706 10.4462C12.8332 10.1966 12.8332 9.8699 12.8332 9.2165V4.78317C12.8332 4.12978 12.8332 3.80308 12.706 3.55352C12.5942 3.334 12.4157 3.15552 12.1962 3.04366C11.9466 2.9165 11.6199 2.9165 10.9665 2.9165H3.03317C2.37978 2.9165 2.05308 2.9165 1.80352 3.04366C1.584 3.15551 1.40551 3.33399 1.29366 3.55352C1.1665 3.80308 1.1665 4.12977 1.1665 4.78317ZM10.7915 6.99984C10.7915 7.1609 10.6609 7.2915 10.4998 7.2915C10.3388 7.2915 10.2082 7.1609 10.2082 6.99984C10.2082 6.83878 10.3388 6.70817 10.4998 6.70817C10.6609 6.70817 10.7915 6.83878 10.7915 6.99984ZM3.7915 6.99984C3.7915 7.1609 3.66092 7.2915 3.49984 7.2915C3.33876 7.2915 3.20817 7.1609 3.20817 6.99984C3.20817 6.83878 3.33876 6.70817 3.49984 6.70817C3.66092 6.70817 3.7915 6.83878 3.7915 6.99984Z" stroke="#DCDCDC" stroke-width="1.16667" stroke-linecap="round" stroke-linejoin="round"/>
</svg>
