<svg width="14" height="14" viewBox="0 0 14 14" fill="none" xmlns="http://www.w3.org/2000/svg">
<path d="M8.16699 5.24984H6.70866C6.22543 5.24984 5.83366 5.64159 5.83366 6.12484C5.83366 6.60807 6.22543 6.99984 6.70866 6.99984H7.29199C7.77523 6.99984 8.16699 7.3916 8.16699 7.87484C8.16699 8.35807 7.77523 8.74984 7.29199 8.74984H5.83366M7.00033 4.6665V5.24984M7.00033 8.74984V9.33317M10.5003 6.99984H10.5062M3.50033 6.99984H3.50616M1.16699 4.78317V9.2165C1.16699 9.8699 1.16699 10.1966 1.29415 10.4462C1.406 10.6657 1.58448 10.8442 1.804 10.956C2.05357 11.0832 2.38026 11.0832 3.03366 11.0832H10.967C11.6204 11.0832 11.9471 11.0832 12.1967 10.956C12.4162 10.8442 12.5947 10.6657 12.7065 10.4462C12.8337 10.1966 12.8337 9.8699 12.8337 9.2165V4.78317C12.8337 4.12978 12.8337 3.80308 12.7065 3.55352C12.5947 3.334 12.4162 3.15552 12.1967 3.04366C11.9471 2.9165 11.6204 2.9165 10.967 2.9165H3.03366C2.38027 2.9165 2.05357 2.9165 1.804 3.04366C1.58448 3.15551 1.406 3.33399 1.29415 3.55352C1.16699 3.80308 1.16699 4.12977 1.16699 4.78317ZM10.792 6.99984C10.792 7.1609 10.6614 7.2915 10.5003 7.2915C10.3393 7.2915 10.2087 7.1609 10.2087 6.99984C10.2087 6.83878 10.3393 6.70817 10.5003 6.70817C10.6614 6.70817 10.792 6.83878 10.792 6.99984ZM3.79199 6.99984C3.79199 7.1609 3.66141 7.2915 3.50033 7.2915C3.33924 7.2915 3.20866 7.1609 3.20866 6.99984C3.20866 6.83878 3.33924 6.70817 3.50033 6.70817C3.66141 6.70817 3.79199 6.83878 3.79199 6.99984Z" stroke="#DCDCDC" stroke-width="1.16667" stroke-linecap="round" stroke-linejoin="round"/>
</svg>
