<svg width="15" height="15" viewBox="0 0 15 15" fill="none" xmlns="http://www.w3.org/2000/svg">
<path d="M15 9.19575V15H11.7843V9.58474C11.7843 8.22503 11.32 7.29647 10.1557 7.29647C9.2672 7.29647 8.73937 7.92162 8.50627 8.52694C8.42161 8.74327 8.39979 9.04367 8.39979 9.34708V14.9998H5.18386C5.18386 14.9998 5.22703 5.82809 5.18386 4.8787H8.40003V6.31295C8.39355 6.32424 8.38444 6.33529 8.37868 6.34608H8.40003V6.31295C8.82738 5.62481 9.58952 4.64104 11.2982 4.64104C13.4139 4.64104 15 6.08759 15 9.19575ZM1.81972 0C0.719687 0 0 0.755647 0 1.74845C0 2.72018 0.698823 3.49766 1.77751 3.49766H1.79838C2.92 3.49766 3.61738 2.72018 3.61738 1.74845C3.59604 0.755647 2.92 0 1.81972 0ZM0.191133 15H3.40586V4.8787H0.191133V15Z" fill="#F0F0F0"/>
</svg>
