<svg width="71" height="80" viewBox="0 0 71 80" fill="none" xmlns="http://www.w3.org/2000/svg">
<path fill-rule="evenodd" clip-rule="evenodd" d="M63.7247 44.1433C63.7355 44.1433 63.7355 44.1433 63.7247 44.1433C65.6797 40.08 67.0936 36.23 67.6347 33.0033C68.3272 28.88 67.6635 25.6267 65.6436 23.3267C63.2269 20.57 59.4612 19.8033 55.7028 19.7767C52.9398 19.7767 49.7043 20.22 46.2488 20.97C43.8141 12.3167 38.8184 0 29.4403 0C18.6012 0 10.0022 17.7233 4.97043 33.32C3.12726 39.0533 0 50.4467 0 56.0433C0 69.25 11.3007 80 25.1912 80C40.9177 80 71 70.6667 71 56.0433C71 51.5267 68.1397 47.5333 63.7247 44.1433ZM55.6811 25.0767C57.6397 25.09 60.2872 25.33 61.4884 26.81C62.5777 28.1567 62.4731 30.4667 62.1881 32.16C61.6904 35.14 60.4027 38.4133 59.1402 41.16C56.0311 39.4211 52.7597 37.943 49.3653 36.7433C48.9112 33.1769 48.2975 29.6294 47.5257 26.11C50.5484 25.4567 53.3366 25.0767 55.6811 25.0767ZM49.9965 42.6267C52.341 43.5733 54.5665 44.6133 56.7488 45.8733C54.8376 49.3397 52.7269 52.709 50.4257 55.9667C50.5664 52.5333 50.4618 47.85 49.9965 42.6267ZM43.5652 34.9033C38.5082 33.5033 33.4621 32.5933 29.0723 32.2467C33.3339 30.396 37.7194 28.7994 42.2018 27.4667C42.7392 29.91 43.1901 32.42 43.5652 34.9033ZM14.0564 24.3067C19.1134 12.4 24.8774 5.29667 29.4727 5.29667C35.3629 5.29667 39.3811 16.8733 40.9249 22.3233C35.017 24.0494 29.2703 26.2154 23.7412 28.8C18.4029 31.28 13.0429 34.5933 9.42146 37.3767C10.5541 33.1367 12.9563 26.9233 14.0564 24.3067ZM25.0578 74.7033C14.2729 74.6367 5.52591 66.2867 5.52591 56.0433C5.52591 45.7433 14.3486 37.3733 25.1984 37.3733C30.7784 37.3733 37.7435 38.59 44.3011 40.6067C45.0225 47.44 45.1667 53.7 44.7988 57.6767C43.8754 67.6833 34.6524 74.6767 25.0578 74.7033ZM51.1868 68.9633C49.0731 69.8633 46.8332 70.6833 44.5319 71.3967C50.0939 65.94 56.5107 57.3533 61.2106 48.9733C63.9736 51.3167 65.4777 53.7333 65.4777 56.04C65.4849 60.3767 60.2692 65.0867 51.1868 68.9633Z" fill="white"/>
</svg>
