<svg width="76" height="25" viewBox="0 0 76 25" fill="none" xmlns="http://www.w3.org/2000/svg">
<path fill-rule="evenodd" clip-rule="evenodd" d="M25.3851 0H28.9779V3.93917H25.3851V0ZM25.3851 5.64533H28.9779V24.2911H25.3851V5.64533ZM32.0513 0H35.6442V12.905L48.0442 2.83113H53.0209L40.0024 13.2035L53.3731 24.2911H48.16L35.6418 14.0384V24.2911H32.0478V0H32.0502H32.0513ZM0 24.2935V0H12.9015C21.5928 0 22.5301 5.47254 22.5301 7.82396C22.5301 10.1754 21.5928 15.6491 12.8991 15.6491H3.59284V24.2948H0V24.2935ZM3.59284 12.0422H12.2531C16.7534 12.0422 18.6734 10.7808 18.6734 7.82396C18.6734 4.86717 16.7534 3.60567 12.2531 3.60567H3.59284V12.0422ZM63.0078 24.6041C59.8197 24.6041 57.28 24.1268 55.8543 23.2592C54.2615 22.2901 53.4878 20.7906 53.4878 18.6724C53.4878 13.276 58.8633 12.5703 67.7684 11.4043C68.9564 11.2484 70.1731 11.0901 71.4531 10.9088C71.4531 7.47596 69.5964 6.25917 64.3558 6.25917C60.0179 6.25917 58.0836 7.56417 58.0836 10.4883H54.4597C54.4597 5.59942 58.1588 2.68008 64.3558 2.68008C71.7302 2.68008 75.0185 5.13421 75.0185 10.6382V20.0511C75.0185 22.591 75.1654 24.273 75.1666 24.2899H71.8997C71.8997 24.2803 71.8066 23.3643 71.8997 21.8841C70.8752 23.5093 67.3027 24.6029 63.009 24.6029H63.0066L63.0078 24.6041ZM71.4531 14.0964C66.0812 14.726 62.2997 15.2552 60.0502 15.9403C57.9618 16.5759 57.1116 17.3589 57.1116 18.641C57.1116 21.2727 60.3785 21.6654 62.3248 21.6654C65.5033 21.6654 67.649 21.2727 69.077 20.4305C70.6758 19.488 71.4531 17.9135 71.4531 15.6189V14.0964Z" fill="white"/>
</svg>
