<svg width="127" height="34" viewBox="0 0 127 34" fill="none" xmlns="http://www.w3.org/2000/svg">
<path d="M36.8224 32.6632L22.3869 0.379414C22.2943 0.172333 22.0882 0.0386009 21.8612 0.0386009H14.9659C14.7386 0.0386009 14.5325 0.172333 14.4398 0.380047L0.0505282 32.6638C-0.119245 33.0448 0.159598 33.4741 0.576602 33.4741H7.23412C7.4668 33.4741 7.67673 33.3341 7.76588 33.1194L17.8299 8.91929C18.0266 8.4457 18.6974 8.44633 18.8935 8.91992L23.3335 19.6381C23.4906 20.0171 23.2118 20.4345 22.8014 20.4345H18.0636C17.8189 20.4345 17.6007 20.5891 17.5201 20.8202L15.8688 25.5435C15.738 25.9178 16.0158 26.3095 16.4123 26.3095H25.7122C25.9452 26.3095 26.1551 26.4499 26.2443 26.6649L28.9177 33.1188C29.0068 33.3337 29.2167 33.4741 29.4497 33.4741H36.2966C36.714 33.4741 36.9928 33.0442 36.8224 32.6632Z" fill="#CCFF00"/>
<path d="M102.829 32.6632L88.3938 0.379414C88.3011 0.172333 88.095 0.0386009 87.868 0.0386009H80.9727C80.7454 0.0386009 80.5393 0.172333 80.4467 0.380047L66.0574 32.6638C65.8876 33.0448 66.1664 33.4741 66.5834 33.4741H73.241C73.4736 33.4741 73.6836 33.3341 73.7727 33.1194L83.8368 8.91929C84.0334 8.4457 84.7043 8.44633 84.9003 8.91992L89.3403 19.6381C89.4974 20.0171 89.2186 20.4345 88.8082 20.4345H84.0704C83.8257 20.4345 83.6075 20.5891 83.5269 20.8202L81.8757 25.5435C81.7448 25.9178 82.0227 26.3095 82.4191 26.3095H91.719C91.952 26.3095 92.162 26.4499 92.2511 26.6649L94.9245 33.1188C95.0137 33.3337 95.2236 33.4741 95.4566 33.4741H102.303C102.721 33.4741 103 33.0442 102.829 32.6632Z" fill="white"/>
<path d="M73.8588 -0.000195503H51.4513C50.8537 -0.000195503 50.4535 0.614719 50.696 1.16103L53.701 7.93741C53.8335 8.23618 54.1297 8.42871 54.4563 8.42871H71.0599C71.5044 8.42871 71.9081 8.16884 72.0921 7.76385L74.891 1.60238C75.2321 0.851832 74.6833 -0.000195503 73.8588 -0.000195503Z" fill="white"/>
<path d="M68.0984 12.6707H56.3857C55.7853 12.6707 55.3854 13.2907 55.6332 13.8376L58.7011 20.6143C58.8349 20.9096 59.1292 21.0996 59.4536 21.0996H65.2995C65.744 21.0996 66.1478 20.8397 66.3318 20.4347L69.1307 14.2733C69.4718 13.5227 68.9229 12.6707 68.0984 12.6707Z" fill="white"/>
<path d="M42.0139 33.4741H48.6383C49.1333 33.4741 49.4659 32.9657 49.2671 32.5121L40.7629 13.1699C40.6532 12.9192 40.405 12.7574 40.1313 12.7586L34.1026 12.783C33.6129 12.7849 33.2828 13.2838 33.4722 13.7352L41.3807 33.0533C41.4879 33.3081 41.7373 33.4741 42.0139 33.4741Z" fill="#CCFF00"/>
<path d="M53.9976 33.4741H60.6219C61.117 33.4741 61.4496 32.9657 61.2507 32.5121L47.7131 0.685444C47.6034 0.434734 47.3552 0.272865 47.0815 0.274132L41.0528 0.298477C40.563 0.300373 40.233 0.799259 40.4224 1.25072L53.3644 33.0533C53.4715 33.3081 53.721 33.4741 53.9976 33.4741Z" fill="white"/>
<path d="M28.9663 0.0394859H35.1654C35.4168 0.0394859 35.6438 0.188394 35.744 0.418868L38.8072 7.69477C38.9883 8.11114 38.6829 8.57715 38.2286 8.57715H31.8215C31.5619 8.57715 31.3286 8.41781 31.2341 8.17595L28.3789 0.900366C28.2171 0.486524 28.5221 0.0394859 28.9663 0.0394859Z" fill="#CCFF00"/>
<rect x="95.3799" y="0.5" width="31" height="13" rx="6.5" stroke="#CCFF00"/>
<path d="M100.72 10V4.4H103.232C103.877 4.4 104.373 4.53067 104.72 4.792C105.067 5.048 105.24 5.4 105.24 5.848C105.24 6.152 105.171 6.408 105.032 6.616C104.899 6.824 104.717 6.984 104.488 7.096C104.259 7.208 104.011 7.264 103.744 7.264L103.888 7.024C104.208 7.024 104.491 7.08 104.736 7.192C104.981 7.304 105.176 7.46933 105.32 7.688C105.464 7.90133 105.536 8.168 105.536 8.488C105.536 8.968 105.355 9.34133 104.992 9.608C104.635 9.86933 104.101 10 103.392 10H100.72ZM101.52 9.352H103.36C103.803 9.352 104.141 9.27733 104.376 9.128C104.611 8.97867 104.728 8.744 104.728 8.424C104.728 8.09867 104.611 7.86133 104.376 7.712C104.141 7.56267 103.803 7.488 103.36 7.488H101.448V6.84H103.16C103.565 6.84 103.88 6.76533 104.104 6.616C104.328 6.46667 104.44 6.24267 104.44 5.944C104.44 5.64533 104.328 5.42133 104.104 5.272C103.88 5.12267 103.565 5.048 103.16 5.048H101.52V9.352ZM106.775 10V4.4H110.727V5.096H107.575V9.304H110.839V10H106.775ZM107.503 7.496V6.816H110.383V7.496H107.503ZM113.246 10V5.096H111.326V4.4H115.958V5.096H114.038V10H113.246ZM115.7 10L118.236 4.4H119.028L121.572 10H120.732L118.468 4.848H118.788L116.524 10H115.7ZM116.78 8.6L116.996 7.96H120.148L120.38 8.6H116.78Z" fill="#CCFF00"/>
</svg>
