<svg width="103" height="34" viewBox="0 0 103 34" fill="none" xmlns="http://www.w3.org/2000/svg">
<path d="M36.8224 32.6627L22.3869 0.378925C22.2943 0.171844 22.0882 0.0381126 21.8612 0.0381126H14.9659C14.7386 0.0381126 14.5325 0.171844 14.4398 0.379559L0.0505282 32.6633C-0.119245 33.0443 0.159598 33.4736 0.576602 33.4736H7.23412C7.4668 33.4736 7.67673 33.3336 7.76588 33.1189L17.8299 8.9188C18.0266 8.44521 18.6974 8.44584 18.8935 8.91943L23.3335 19.6376C23.4906 20.0167 23.2118 20.434 22.8014 20.434H18.0636C17.8189 20.434 17.6007 20.5886 17.5201 20.8197L15.8688 25.543C15.738 25.9173 16.0158 26.309 16.4123 26.309H25.7122C25.9452 26.309 26.1551 26.4494 26.2443 26.6644L28.9177 33.1183C29.0068 33.3333 29.2167 33.4736 29.4497 33.4736H36.2966C36.714 33.4736 36.9928 33.0437 36.8224 32.6627Z" fill="#CCFF00"/>
<path d="M102.828 32.6627L88.3928 0.378925C88.3002 0.171844 88.094 0.0381126 87.867 0.0381126H80.9718C80.7445 0.0381126 80.5383 0.171844 80.4457 0.379559L66.0564 32.6633C65.8866 33.0443 66.1655 33.4736 66.5825 33.4736H73.24C73.4727 33.4736 73.6826 33.3336 73.7717 33.1189L83.8358 8.9188C84.0324 8.44521 84.7033 8.44584 84.8993 8.91943L89.3393 19.6376C89.4965 20.0167 89.2176 20.434 88.8073 20.434H84.0694C83.8247 20.434 83.6066 20.5886 83.526 20.8197L81.8747 25.543C81.7438 25.9173 82.0217 26.309 82.4182 26.309H91.7181C91.9511 26.309 92.161 26.4494 92.2501 26.6644L94.9235 33.1183C95.0127 33.3333 95.2226 33.4736 95.4556 33.4736H102.302C102.72 33.4736 102.999 33.0437 102.828 32.6627Z" fill="white"/>
<path d="M73.8578 -0.000195503H51.4503C50.8527 -0.000195503 50.4525 0.614719 50.695 1.16103L53.7 7.93741C53.8325 8.23618 54.1287 8.42871 54.4553 8.42871H71.0589C71.5034 8.42871 71.9072 8.16884 72.0912 7.76385L74.89 1.60238C75.2312 0.851832 74.6823 -0.000195503 73.8578 -0.000195503Z" fill="white"/>
<path d="M68.0984 12.6707H56.3857C55.7853 12.6707 55.3854 13.2907 55.6332 13.8376L58.7011 20.6143C58.8349 20.9096 59.1292 21.0996 59.4536 21.0996H65.2995C65.744 21.0996 66.1478 20.8397 66.3318 20.4347L69.1307 14.2733C69.4718 13.5227 68.9229 12.6707 68.0984 12.6707Z" fill="white"/>
<path d="M42.0139 33.4736H48.6383C49.1333 33.4736 49.4659 32.9653 49.2671 32.5116L40.7629 13.1695C40.6532 12.9187 40.405 12.7569 40.1313 12.7581L34.1026 12.7825C33.6129 12.7844 33.2828 13.2833 33.4722 13.7347L41.3807 33.0528C41.4879 33.3077 41.7373 33.4736 42.0139 33.4736Z" fill="#CCFF00"/>
<path d="M53.9986 33.4736H60.6229C61.118 33.4736 61.4506 32.9653 61.2517 32.5116L47.7141 0.684956C47.6044 0.434246 47.3562 0.272377 47.0824 0.273643L41.0537 0.297989C40.564 0.299885 40.234 0.798771 40.4233 1.25023L53.3653 33.0528C53.4725 33.3077 53.722 33.4736 53.9986 33.4736Z" fill="white"/>
<path d="M28.9673 0.0394859H35.1664C35.4177 0.0394859 35.6447 0.188394 35.745 0.418868L38.8082 7.69477C38.9893 8.11114 38.6839 8.57715 38.2296 8.57715H31.8225C31.5629 8.57715 31.3296 8.41781 31.2351 8.17595L28.3799 0.900366C28.218 0.486524 28.5231 0.0394859 28.9673 0.0394859Z" fill="#CCFF00"/>
</svg>
