<svg width="87" height="30" viewBox="0 0 87 30" fill="none" xmlns="http://www.w3.org/2000/svg">
<g clip-path="url(#clip0_362_15742)">
<mask id="mask0_362_15742" style="mask-type:luminance" maskUnits="userSpaceOnUse" x="0" y="0" width="87" height="30">
<path d="M86.4 0.267578H0V29.4911H86.4V0.267578Z" fill="white"/>
</mask>
<g mask="url(#mask0_362_15742)">
<path d="M36.7705 15.2553C36.7705 19.3117 33.5972 22.3006 29.7029 22.3006C25.8085 22.3006 22.6352 19.3117 22.6352 15.2553C22.6352 11.1703 25.8085 8.20985 29.7029 8.20985C33.5972 8.20985 36.7705 11.1703 36.7705 15.2553ZM33.6766 15.2553C33.6766 12.7204 31.8374 10.9861 29.7029 10.9861C27.5682 10.9861 25.7291 12.7204 25.7291 15.2553C25.7291 17.7646 27.5682 19.5244 29.7029 19.5244C31.8374 19.5244 33.6766 17.7615 33.6766 15.2553ZM52.0175 15.2553C52.0175 19.3117 48.8442 22.3006 44.9498 22.3006C41.0555 22.3006 37.8822 19.3117 37.8822 15.2553C37.8822 11.1735 41.0555 8.20985 44.9498 8.20985C48.8442 8.20985 52.0175 11.1703 52.0175 15.2553ZM48.9236 15.2553C48.9236 12.7204 47.0845 10.9861 44.9498 10.9861C42.8153 10.9861 40.9762 12.7204 40.9762 15.2553C40.9762 17.7646 42.8153 19.5244 44.9498 19.5244C47.0845 19.5244 48.9236 17.7615 48.9236 15.2553ZM66.6293 8.6355V21.2842C66.6293 26.4873 63.5609 28.6123 59.9333 28.6123C56.5186 28.6123 54.4634 26.3284 53.6884 24.4606L56.382 23.3393C56.8616 24.4861 58.0369 25.8393 59.9302 25.8393C62.2522 25.8393 63.6911 24.4066 63.6911 21.7099V20.6966H63.5831C62.8906 21.551 61.5565 22.2975 59.8729 22.2975C56.3502 22.2975 53.1229 19.229 53.1229 15.2806C53.1229 11.3037 56.3502 8.20985 59.8729 8.20985C61.5533 8.20985 62.8874 8.95632 63.5831 9.78538H63.6911V8.63867H66.6293V8.6355ZM63.9102 15.2806C63.9102 12.7999 62.2553 10.9861 60.1493 10.9861C58.0147 10.9861 56.2264 12.7999 56.2264 15.2806C56.2264 17.7361 58.0147 19.5244 60.1493 19.5244C62.2553 19.5244 63.9102 17.7361 63.9102 15.2806ZM71.4734 1.22161V21.8686H68.4558V1.22161H71.4734ZM83.2327 17.5741L85.6342 19.175C84.8591 20.3217 82.9913 22.2975 79.764 22.2975C75.7616 22.2975 72.7726 19.2037 72.7726 15.2521C72.7726 11.0623 75.7871 8.20667 79.4178 8.20667C83.0738 8.20667 84.8622 11.1163 85.4467 12.6886L85.7676 13.4891L76.3493 17.3899C77.0704 18.8033 78.1916 19.5244 79.764 19.5244C81.3396 19.5244 82.4322 18.7493 83.2327 17.5741ZM75.8411 15.0393L82.1369 12.425C81.7906 11.5451 80.7487 10.9321 79.5226 10.9321C77.9502 10.9321 75.7616 12.3202 75.8411 15.0393ZM11.2126 13.4224V10.4334H21.2852C21.3836 10.9543 21.4345 11.5706 21.4345 12.2377C21.4345 14.4802 20.8214 17.2533 18.8456 19.229C16.9238 21.2302 14.4685 22.2975 11.2158 22.2975C5.18683 22.2975 0.117188 17.3866 0.117188 11.3577C0.117188 5.32879 5.18683 0.417969 11.2158 0.417969C14.5511 0.417969 16.9271 1.72667 18.7122 3.43243L16.6031 5.54161C15.3229 4.34091 13.5886 3.40703 11.2126 3.40703C6.81001 3.40703 3.36672 6.95514 3.36672 11.3577C3.36672 15.7603 6.81001 19.3084 11.2126 19.3084C14.0682 19.3084 15.6946 18.1617 16.7365 17.1199C17.5814 16.2749 18.1373 15.0679 18.3565 13.4193L11.2126 13.4224Z" fill="#F0F0F0"/>
</g>
</g>
<defs>
<clipPath id="clip0_362_15742">
<rect width="86.4" height="30" fill="white"/>
</clipPath>
</defs>
</svg>
