<svg width="163" height="37" viewBox="0 0 163 37" fill="none" xmlns="http://www.w3.org/2000/svg">
<g clip-path="url(#clip0_362_15751)">
<mask id="mask0_362_15751" style="mask-type:luminance" maskUnits="userSpaceOnUse" x="0" y="0" width="163" height="36">
<path d="M162.98 0.643555H0V35.4126H162.98V0.643555Z" fill="white"/>
</mask>
<g mask="url(#mask0_362_15751)">
<path d="M11.4285 0.643555H0V12.0056H11.4285V0.643555Z" fill="#F0F0F0"/>
<path d="M24.9735 14.3721H13.5449V25.7341H24.9735V14.3721Z" fill="#F0F0F0"/>
<path d="M24.9735 0.643555H13.5449V12.0056H34.7869V10.3913C34.7869 7.78363 33.731 5.36222 31.9299 3.49958C30.0666 1.69904 27.582 0.643555 24.9735 0.643555Z" fill="#F0F0F0"/>
<path d="M0 14.3721V25.7341C0 28.3418 1.05589 30.7632 2.85713 32.6259C4.72046 34.4263 7.20491 35.4819 9.81358 35.4819H11.4285V14.3721H0Z" fill="#F0F0F0"/>
<path opacity="0.18" d="M0 0.643555L11.4285 12.0056H0V0.643555Z" fill="#F0F0F0"/>
<path opacity="0.18" d="M13.5449 14.3721L24.9735 25.7341H13.5449V14.3721Z" fill="#F0F0F0"/>
<path opacity="0.18" d="M0 25.672C0 28.2797 1.05589 30.7012 2.85713 32.5638C4.72046 34.3642 7.20491 35.4198 9.81358 35.4198H11.4285V14.3721L0 25.672Z" fill="#F0F0F0"/>
<path opacity="0.18" d="M24.9735 0.643555C27.582 0.643555 30.0666 1.69904 31.9299 3.49958C33.7933 5.30013 34.7869 7.78363 34.7869 10.3913V12.0056H13.5449L24.9735 0.643555Z" fill="#F0F0F0"/>
<path d="M53.7217 16.0446H51.051V27.9655H48.0695V16.0446H46.3926V13.6232H48.0695V12.6298C48.0695 11.0155 48.5044 9.77377 49.3739 9.02871C50.2436 8.28366 51.61 7.91113 53.5354 7.91113V10.3946C52.6037 10.3946 51.9826 10.5809 51.61 10.8913C51.2372 11.2018 51.051 11.8227 51.051 12.6298V13.6232H53.7217V16.0446Z" fill="#F0F0F0"/>
<path d="M57.3338 11.7606C56.7746 11.7606 56.34 11.5743 55.9672 11.2018C55.5946 10.8293 55.4082 10.3946 55.4082 9.83586C55.4082 9.27706 55.5946 8.84244 55.9672 8.46993C56.34 8.0974 56.7746 7.91113 57.3338 7.91113C57.8305 7.91113 58.2654 8.0974 58.638 8.46993C59.0108 8.84244 59.197 9.27706 59.197 9.83586C59.197 10.3946 59.0108 10.8293 58.638 11.2018C58.2654 11.5743 57.8305 11.7606 57.3338 11.7606ZM58.7623 13.6232V27.9034H55.781V13.6232H58.7623Z" fill="#F0F0F0"/>
<path d="M65.0868 15.7347C65.5216 14.9897 66.0806 14.4309 66.826 14.0584C67.5714 13.6238 68.4409 13.4375 69.3725 13.4375V16.4798H68.6271C67.447 16.4798 66.5775 16.7902 65.9563 17.349C65.3973 17.9078 65.0868 18.9632 65.0868 20.3914V27.966H62.1055V13.6859H65.0868V15.7347Z" fill="#F0F0F0"/>
<path d="M84.7215 20.4555C84.7215 21.0143 84.6593 21.4488 84.5972 21.8835H73.6656C73.7278 23.0011 74.1625 23.9324 74.9079 24.6153C75.6532 25.2983 76.5848 25.6709 77.7028 25.6709C79.3177 25.6709 80.4358 24.9879 81.0569 23.6841H84.2246C83.7898 24.9879 82.9823 26.1054 81.8643 26.9127C80.7464 27.7198 79.3177 28.1544 77.6407 28.1544C76.2743 28.1544 75.032 27.8439 73.9763 27.223C72.9204 26.6021 72.0507 25.733 71.4296 24.6153C70.8086 23.4977 70.498 22.1939 70.498 20.7038C70.498 19.2138 70.8086 17.972 71.3676 16.8544C71.9886 15.7368 72.7961 14.8676 73.914 14.2467C75.032 13.6259 76.2743 13.3154 77.6407 13.3154C79.0072 13.3154 80.1874 13.6259 81.2433 14.1847C82.2992 14.7434 83.1066 15.6127 83.7277 16.6682C84.4108 17.8479 84.7215 19.0275 84.7215 20.4555ZM81.6159 19.5241C81.6159 18.4067 81.181 17.5373 80.4358 16.9165C79.6905 16.2336 78.7587 15.9231 77.5787 15.9231C76.5848 15.9231 75.6532 16.2336 74.9699 16.9165C74.2246 17.5373 73.7899 18.4067 73.6656 19.5241H81.6159Z" fill="#F0F0F0"/>
<path d="M93.1064 16.0446H90.4356V27.9655H87.4543V16.0446H85.7773V13.6232H87.4543V12.6298C87.4543 11.0155 87.889 9.77377 88.7587 9.02871C89.6282 8.28366 90.9946 7.91113 92.92 7.91113V10.3946C91.9884 10.3946 91.3672 10.5809 90.9946 10.8913C90.622 11.2018 90.4356 11.8227 90.4356 12.6298V13.6232H93.1064V16.0446Z" fill="#F0F0F0"/>
<path d="M98.2001 8.7168V27.964H95.2188V8.7168H98.2001Z" fill="#F0F0F0"/>
<path d="M103.043 11.7606C102.484 11.7606 102.049 11.5743 101.676 11.2018C101.304 10.8293 101.117 10.3946 101.117 9.83586C101.117 9.27706 101.304 8.84244 101.676 8.46993C102.049 8.0974 102.484 7.91113 103.043 7.91113C103.54 7.91113 103.974 8.0974 104.347 8.46993C104.72 8.84244 104.906 9.27706 104.906 9.83586C104.906 10.3946 104.72 10.8293 104.347 11.2018C104.036 11.5743 103.54 11.7606 103.043 11.7606ZM104.471 13.6232V27.9034H101.49V13.6232H104.471Z" fill="#F0F0F0"/>
<path d="M120.997 20.4555C120.997 21.0143 120.935 21.4488 120.873 21.8835H109.941C110.003 23.0011 110.438 23.9324 111.183 24.6153C111.929 25.2983 112.86 25.6709 113.978 25.6709C115.593 25.6709 116.711 24.9879 117.332 23.6841H120.5C120.065 24.9879 119.258 26.1054 118.14 26.9127C117.022 27.7198 115.593 28.1544 113.916 28.1544C112.55 28.1544 111.308 27.8439 110.252 27.223C109.196 26.6021 108.326 25.733 107.705 24.6153C107.084 23.4977 106.773 22.1939 106.773 20.7038C106.773 19.2138 107.084 17.972 107.643 16.8544C108.264 15.7368 109.072 14.8676 110.19 14.2467C111.308 13.6259 112.55 13.3154 113.916 13.3154C115.283 13.3154 116.463 13.6259 117.519 14.1847C118.575 14.7434 119.382 15.6127 120.003 16.6682C120.686 17.8479 120.997 19.0275 120.997 20.4555ZM117.891 19.5241C117.891 18.4067 117.457 17.5373 116.711 16.9165C115.966 16.2336 115.034 15.9231 113.854 15.9231C112.86 15.9231 111.929 16.2336 111.246 16.9165C110.5 17.5373 110.065 18.4067 109.941 19.5241H117.891Z" fill="#F0F0F0"/>
<path d="M128.57 28.1523C127.452 28.1523 126.458 27.966 125.527 27.5315C124.657 27.0968 123.912 26.538 123.415 25.855C122.918 25.1721 122.607 24.365 122.607 23.4956H125.651C125.713 24.1165 125.962 24.6132 126.521 25.0479C127.079 25.4203 127.701 25.6688 128.508 25.6688C129.315 25.6688 129.999 25.4824 130.434 25.1721C130.931 24.8617 131.117 24.427 131.117 23.9303C131.117 23.3715 130.868 22.9991 130.309 22.7506C129.812 22.5023 129.005 22.1918 127.887 21.8814C126.831 21.5709 125.962 21.3226 125.278 21.0123C124.595 20.7638 124.036 20.3293 123.539 19.7705C123.042 19.2117 122.794 18.4666 122.794 17.5352C122.794 16.7902 123.042 16.1073 123.477 15.4864C123.912 14.8655 124.595 14.3688 125.403 13.9963C126.272 13.6238 127.204 13.4375 128.322 13.4375C129.937 13.4375 131.241 13.8721 132.235 14.6793C133.229 15.4864 133.788 16.604 133.85 18.032H130.868C130.806 17.4111 130.558 16.8523 130.061 16.4798C129.564 16.1073 128.943 15.921 128.135 15.921C127.328 15.921 126.769 16.0452 126.334 16.3556C125.899 16.666 125.713 17.0386 125.713 17.5352C125.713 17.9078 125.837 18.2182 126.148 18.4666C126.396 18.7149 126.769 18.9632 127.142 19.0875C127.514 19.2117 128.135 19.3979 128.881 19.6463C129.937 19.8946 130.744 20.205 131.427 20.5155C132.111 20.7638 132.67 21.1985 133.166 21.7573C133.663 22.3161 133.912 23.0611 133.912 23.9924C133.912 24.7995 133.663 25.5447 133.229 26.1655C132.794 26.7863 132.111 27.283 131.303 27.6556C130.62 27.966 129.688 28.1523 128.57 28.1523Z" fill="#F0F0F0"/>
<path d="M137.949 28.0897C137.39 28.0897 136.955 27.9033 136.582 27.5309C136.21 27.1583 136.023 26.7236 136.023 26.165C136.023 25.6061 136.21 25.1715 136.582 24.799C136.955 24.4264 137.39 24.2402 137.949 24.2402C138.446 24.2402 138.881 24.4264 139.253 24.799C139.626 25.1715 139.812 25.6061 139.812 26.165C139.812 26.7236 139.626 27.1583 139.253 27.5309C138.881 27.9654 138.446 28.0897 137.949 28.0897Z" fill="#F0F0F0"/>
<path d="M141.49 20.7017C141.49 19.2737 141.801 17.9699 142.36 16.9144C142.981 15.7968 143.788 14.9276 144.782 14.3688C145.838 13.7479 146.956 13.4375 148.198 13.4375C149.316 13.4375 150.31 13.6859 151.117 14.1205C151.987 14.5551 152.67 15.1139 153.167 15.7347V13.6859H156.148V27.966H153.167V25.855C152.67 26.538 151.987 27.0968 151.117 27.5315C150.248 27.966 149.254 28.2144 148.136 28.2144C146.894 28.2144 145.776 27.9039 144.782 27.283C143.788 26.6621 142.919 25.7309 142.36 24.6132C141.801 23.4335 141.49 22.1297 141.49 20.7017ZM153.229 20.7638C153.229 19.7705 153.043 18.9011 152.608 18.2182C152.235 17.4732 151.676 16.9144 150.993 16.5419C150.31 16.1694 149.627 15.9831 148.881 15.9831C148.136 15.9831 147.391 16.1694 146.77 16.5419C146.086 16.9144 145.59 17.4732 145.155 18.1561C144.782 18.8391 144.534 19.7084 144.534 20.7017C144.534 21.6952 144.72 22.5644 145.155 23.3094C145.59 24.0544 146.086 24.6132 146.77 25.0479C147.453 25.4203 148.136 25.6067 148.881 25.6067C149.627 25.6067 150.372 25.4203 150.993 25.0479C151.676 24.6753 152.173 24.1165 152.608 23.3715C153.043 22.6265 153.229 21.7573 153.229 20.7638Z" fill="#F0F0F0"/>
<path d="M161.058 11.7606C160.499 11.7606 160.065 11.5743 159.692 11.2018C159.319 10.8293 159.133 10.3946 159.133 9.83586C159.133 9.27706 159.319 8.84244 159.692 8.46993C160.065 8.0974 160.499 7.91113 161.058 7.91113C161.555 7.91113 161.99 8.0974 162.363 8.46993C162.735 8.84244 162.922 9.27706 162.922 9.83586C162.922 10.3946 162.735 10.8293 162.363 11.2018C162.052 11.5743 161.617 11.7606 161.058 11.7606ZM162.549 13.6232V27.9034H159.568V13.6232H162.549Z" fill="#F0F0F0"/>
</g>
</g>
<defs>
<clipPath id="clip0_362_15751">
<rect width="162.98" height="36.4104" fill="white"/>
</clipPath>
</defs>
</svg>
