<svg width="66" height="30" viewBox="0 0 66 30" fill="none" xmlns="http://www.w3.org/2000/svg">
<g clip-path="url(#clip0_362_15779)">
<mask id="mask0_362_15779" style="mask-type:luminance" maskUnits="userSpaceOnUse" x="0" y="0" width="66" height="29">
<path d="M65.7143 0.775391H0V28.9387H65.7143V0.775391Z" fill="white"/>
</mask>
<g mask="url(#mask0_362_15779)">
<path d="M31.0573 25.5946C25.0004 25.5946 22.0371 22.1232 22.0371 17.7499C22.0371 13.3766 26.1607 7.84681 32.2154 7.84681C38.2718 7.84681 41.2347 11.3191 41.2347 15.692C41.2347 20.0653 37.112 25.5946 31.0573 25.5946ZM31.3135 20.0653C33.3753 20.0653 34.7934 18.1356 34.7934 16.0777C34.7934 14.0198 33.7617 13.5061 31.9587 13.5061C30.1537 13.5061 28.4787 15.4342 28.4787 17.492C28.4787 19.5499 29.5104 20.0653 31.3135 20.0653ZM47.678 25.2089H41.3648L46.5181 1.80176H52.8328L47.6784 25.0806L47.678 25.2089Z" fill="#F0F0F0"/>
<path fill-rule="evenodd" clip-rule="evenodd" d="M12.3695 25.5946C10.4362 25.5946 8.50466 24.9526 7.47294 23.4087L7.08646 25.2084L0 28.9389L0.773374 25.2093L5.9266 1.80176H12.2413L10.4362 10.0326C11.8544 8.4892 13.271 7.84681 15.0761 7.84681C18.9409 7.84681 21.3891 10.2905 21.3891 14.92C21.3891 19.5496 18.4255 25.5946 12.3695 25.5946ZM14.8177 16.206C14.8177 18.3934 13.271 20.0653 11.2096 20.0653C9.14784 20.0653 9.0197 19.6794 8.37487 18.9076L9.40617 14.6639C10.1796 13.8919 10.9529 13.5061 11.983 13.5061C13.5293 13.5061 14.8177 14.6639 14.8177 16.3356V16.206Z" fill="#F0F0F0"/>
<path d="M59.4 25.5964C55.7919 25.5964 53.0853 24.3107 53.0853 21.353C53.0853 18.3953 53.0853 20.4527 53.2152 20.067L54.632 13.7641H51.7969L53.0853 8.36266H55.92L56.9517 3.73315L64.0382 0.775391L63.2649 3.73315L62.2347 8.36266H65.7132L64.4247 13.7641H60.9452L60.0432 17.88V18.6514C60.0432 19.4234 60.5583 20.067 61.59 20.067C62.62 20.067 62.3633 20.067 62.4914 19.9374V24.9544C61.8483 25.4684 60.6884 25.5964 59.5282 25.5964H59.4Z" fill="#F0F0F0"/>
</g>
</g>
<defs>
<clipPath id="clip0_362_15779">
<rect width="65.7143" height="30" fill="white"/>
</clipPath>
</defs>
</svg>
