<svg width="12" height="13" viewBox="0 0 12 13" fill="none" xmlns="http://www.w3.org/2000/svg">
<path d="M11.9174 5.96161C11.9174 6.34796 11.8625 6.78953 11.8076 7.28632H3.07552C3.51476 8.94233 4.66817 9.77025 6.48035 9.77025C7.85346 9.77025 9.11646 9.3839 10.2699 8.55598L11.478 10.7088C9.99528 11.8128 8.2927 12.3096 6.37058 12.3096C4.33853 12.3096 2.74588 11.7023 1.64753 10.5431C0.549178 9.3839 0 7.89354 0 6.18231C0 4.36081 0.549179 2.92567 1.70242 1.76644C2.85582 0.60722 4.28364 0 6.09599 0C7.7984 0 9.17151 0.552003 10.2699 1.60079C11.3682 2.7048 11.9174 4.13995 11.9174 5.96161ZM6.09599 2.59437C5.32711 2.59437 4.66817 2.81524 4.17388 3.25681C3.6247 3.69838 3.29506 4.3056 3.07552 5.07847H9.00669C8.84187 4.3056 8.5124 3.69838 8.01811 3.25681C7.52382 2.81524 6.86487 2.59437 6.09599 2.59437Z" fill="#F0F0F0"/>
</svg>
